/* XPM */
static char *e7ec12b838ef40cdd6be2357d96538d4kZPbB36Wh6F6pupK[] = {
/* columns rows colors chars-per-pixel */
"64 64 9 1 ",
"  c #C0D470",
". c #141B1B",
"X c #E0394C",
"o c #A4C263",
"O c #8F3E56",
"+ c #F2EAF1",
"@ c #D3A2C0",
"# c #FFAD5D",
"$ c #D78B4A",
/* pixels */
"                                    ............                ",
"                                    ............                ",
"                                    ............                ",
"                                    ............                ",
"                                ....XXXXXXXXXXXX....            ",
"                                ....XXXXXXXXXXXX....            ",
"                        oo      ....XXXXXXXXXXXX....  oo        ",
"                        oo      ....XXXXXXXXXXXX....  oo        ",
"                      oo            ....OOOOOOOOOOOO....        ",
"                      oo            ....OOOOOOOOOOOO....        ",
"                      oo            ....OOOOOOOOOOOO....        ",
"                      oo            ....OOOOOOOOOOOO....        ",
"        oo                      ....++++++++++++++++++++....    ",
"        oo                      ....++++++++++++++++++++....    ",
"          oo                    ....++++++++++++++++++++....    ",
"          oo                    ....++++++++++++++++++++....    ",
"    ............    oo          ....++++++++....++++++++....    ",
"    ............    oo          ....++++++++....++++++++....    ",
"    ............  oo            ....++++++++....++++++++....    ",
"    ............  oo            ....++++++++....++++++++....    ",
"....@@@@@@@@++++....            ....++++++++....++++++++........",
"....@@@@@@@@++++....            ....++++++++....++++++++........",
"....@@@@@@@@++++....            ....++++++++....++++++++........",
"....@@@@@@@@++++....            ....++++++++....++++++++........",
"....@@@@++++++++++++............@@@@++++@@@@@@@@++++########....",
"....@@@@++++++++++++............@@@@++++@@@@@@@@++++########....",
"....@@@@++++++++++++............@@@@++++@@@@@@@@++++########....",
"....@@@@++++++++++++............@@@@++++@@@@@@@@++++########....",
"....@@@@@@@@++++++++++++++++@@@@@@@@++++++++++++++++@@@@....    ",
"....@@@@@@@@++++++++++++++++@@@@@@@@++++++++++++++++@@@@....    ",
"....@@@@@@@@++++++++++++++++@@@@@@@@++++++++++++++++@@@@....    ",
"....@@@@@@@@++++++++++++++++@@@@@@@@++++++++++++++++@@@@....    ",
"....@@@@++++++++++++++++++++@@@@++++++++++++++++++++++++....    ",
"....@@@@++++++++++++++++++++@@@@++++++++++++++++++++++++....    ",
"....@@@@++++++++++++++++++++@@@@++++++++++++++++++++++++....    ",
"....@@@@++++++++++++++++++++@@@@++++++++++++++++++++++++....    ",
"    ....@@@@++++........++++++++++++++++++++++++++++++++....    ",
"    ....@@@@++++........++++++++++++++++++++++++++++++++....    ",
"    ....@@@@++++........++++++++++++++++++++++++++++++++....    ",
"    ....@@@@++++........++++++++++++++++++++++++++++++++....    ",
"....@@@@@@@@@@@@....++++++++++++++++@@@@++++++++++++++++....    ",
"....@@@@@@@@@@@@....++++++++++++++++@@@@++++++++++++++++....    ",
"....@@@@@@@@@@@@....++++++++++++++++@@@@++++++++++++++++....    ",
"....@@@@@@@@@@@@....++++++++++++++++@@@@++++++++++++++++....    ",
"....@@@@@@@@@@@@@@@@................@@@@@@@@++++@@@@++++....    ",
"....@@@@@@@@@@@@@@@@................@@@@@@@@++++@@@@++++....    ",
"....@@@@@@@@@@@@@@@@................@@@@@@@@++++@@@@++++....    ",
"....@@@@@@@@@@@@@@@@................@@@@@@@@++++@@@@++++....    ",
"    ....@@@@@@@@@@@@@@@@@@@@@@@@@@@@@@@@@@@@@@@@@@@@....        ",
"    ....@@@@@@@@@@@@@@@@@@@@@@@@@@@@@@@@@@@@@@@@@@@@....        ",
"    ....@@@@@@@@@@@@@@@@@@@@@@@@@@@@@@@@@@@@@@@@@@@@....        ",
"    ....@@@@@@@@@@@@@@@@@@@@@@@@@@@@@@@@@@@@@@@@@@@@....        ",
"        ........@@@@....@@@@@@@@@@@@@@@@@@@@@@@@....            ",
"        ........@@@@....@@@@@@@@@@@@@@@@@@@@@@@@....            ",
"        ........@@@@....@@@@@@@@@@@@@@@@@@@@@@@@....            ",
"        ........@@@@....@@@@@@@@@@@@@@@@@@@@@@@@....            ",
"                ....$$$$........................                ",
"                ....$$$$........................                ",
"                ....$$$$........................                ",
"                ....$$$$........................                ",
"                ....$$$$########....########....                ",
"                ....$$$$########....########....                ",
"                ....$$$$########....########....                ",
"                ....$$$$########....########....                "
};
