/* XPM */
static char *e5b9a633c90b4a61d6fe8347f488eac91tmZ2UlyZ4TC7wXc[] = {
/* columns rows colors chars-per-pixel */
"64 64 9 1 ",
"  c #C0D470",
". c #F3F4E7",
"X c #A4C263",
"o c #AA7959",
"O c #F3F2C0",
"+ c #F3E5C2",
"@ c #90625D",
"# c #E8CFA6",
"$ c #E8EEAA",
/* pixels */
"                                                                ",
"                                                                ",
"                                                                ",
"                                                                ",
"                        ................                        ",
"                        ................                        ",
"                        ................          XX  XX        ",
"                        ................          XX  XX        ",
"                    ....oooooooooooooooo....        XX          ",
"                    ....oooooooooooooooo....        XX          ",
"                    ....oooooooooooooooo....                    ",
"                    ....oooooooooooooooo....                    ",
"        XX      ....ooooOOOOOOOOOOOOOOOOoooo....                ",
"        XX      ....ooooOOOOOOOOOOOOOOOOoooo....                ",
"          XX    ....ooooOOOOOOOOOOOOOOOOoooo....                ",
"          XX    ....ooooOOOOOOOOOOOOOOOOoooo....                ",
"          XX....ooooOOOOOOOO++++....OOOOOOOO@@@@....            ",
"          XX....ooooOOOOOOOO++++....OOOOOOOO@@@@....            ",
"            ....ooooOOOOOOOO++++....OOOOOOOO@@@@....            ",
"            ....ooooOOOOOOOO++++....OOOOOOOO@@@@....            ",
"        ....ooooOOOOOOOO....++++++++OOOOOOOO####@@@@....        ",
"        ....ooooOOOOOOOO....++++++++OOOOOOOO####@@@@....        ",
"        ....ooooOOOOOOOO....++++++++OOOOOOOO####@@@@....        ",
"        ....ooooOOOOOOOO....++++++++OOOOOOOO####@@@@....        ",
"        ....ooooOOOO............OOOOOOOOOOOO####@@@@....        ",
"        ....ooooOOOO............OOOOOOOOOOOO####@@@@....        ",
"        ....ooooOOOO............OOOOOOOOOOOO####@@@@....        ",
"        ....ooooOOOO............OOOOOOOOOOOO####@@@@....        ",
"    ....ooooOOOOOOOO++++....OOOOOOOOOOOOOOOO########@@@@....    ",
"    ....ooooOOOOOOOO++++....OOOOOOOOOOOOOOOO########@@@@....    ",
"    ....ooooOOOOOOOO++++....OOOOOOOOOOOOOOOO########@@@@....    ",
"    ....ooooOOOOOOOO++++....OOOOOOOOOOOOOOOO########@@@@....    ",
"    ....@@@@OOOOOOOOOOOOOOOOOOOOOOOOOOOO############@@@@....    ",
"    ....@@@@OOOOOOOOOOOOOOOOOOOOOOOOOOOO############@@@@....    ",
"    ....@@@@OOOOOOOOOOOOOOOOOOOOOOOOOOOO############@@@@....    ",
"    ....@@@@OOOOOOOOOOOOOOOOOOOOOOOOOOOO############@@@@....    ",
"    ....@@@@OOOOOOOOOOOOOOOOOOOOOOOOOOOO############@@@@....    ",
"    ....@@@@OOOOOOOOOOOOOOOOOOOOOOOOOOOO############@@@@....    ",
"    ....@@@@OOOOOOOOOOOOOOOOOOOOOOOOOOOO############@@@@....    ",
"    ....@@@@OOOOOOOOOOOOOOOOOOOOOOOOOOOO############@@@@....    ",
"    ....@@@@OOOOOOOOOOOOOOOOOOOOOOOO################@@@@....    ",
"    ....@@@@OOOOOOOOOOOOOOOOOOOOOOOO################@@@@....    ",
"    ....@@@@OOOOOOOOOOOOOOOOOOOOOOOO################@@@@....    ",
"    ....@@@@OOOOOOOOOOOOOOOOOOOOOOOO################@@@@....    ",
"    ....@@@@OOOOOOOOOOOOOOOOOOOO####################@@@@....    ",
"    ....@@@@OOOOOOOOOOOOOOOOOOOO####################@@@@....    ",
"    ....@@@@OOOOOOOOOOOOOOOOOOOO####################@@@@....    ",
"    ....@@@@OOOOOOOOOOOOOOOOOOOO####################@@@@....    ",
"        ....@@@@OOOOOOOOOOOO####################@@@@....        ",
"        ....@@@@OOOOOOOOOOOO####################@@@@....        ",
"        ....@@@@OOOOOOOOOOOO####################@@@@....        ",
"        ....@@@@OOOOOOOOOOOO####################@@@@....        ",
"        $$  ....@@@@@@@@@@@@@@@@@@@@@@@@@@@@@@@@....            ",
"        $$  ....@@@@@@@@@@@@@@@@@@@@@@@@@@@@@@@@....            ",
"            ....@@@@@@@@@@@@@@@@@@@@@@@@@@@@@@@@....            ",
"            ....@@@@@@@@@@@@@@@@@@@@@@@@@@@@@@@@....            ",
"                ................................                ",
"                ................................                ",
"                ................................                ",
"                ................................                ",
"                                                                ",
"                                                                ",
"                                                                ",
"                                                                "
};
