/* XPM */
static char *_9509b5046b74d4595749fbb189c3e6fTZRGubTgsivpR8TL[] = {
/* columns rows colors chars-per-pixel */
"64 64 14 1 ",
"  c #C0D470",
". c #546626",
"X c #ADBC3A",
"o c #61372E",
"O c #A8A129",
"+ c #A3754E",
"@ c #965340",
"# c #74A334",
"$ c #A4C263",
"% c #7A7A3E",
"& c #EECF9B",
"* c #141B1B",
"= c #D2B37D",
"- c #CEC66A",
/* pixels */
"                                                   .........    ",
"                                               ....XXXXXXXXX... ",
"                                               ....XXXXXXXXX... ",
"                                        oooooo.XXXXXXXXXXXXXXXX.",
"O                                ooooooo++++@@#X##XXXXXXXXXXXXX.",
"O                        oooooooo+++++++++++###XXXXXXXXXX##XX##.",
"O                       $oooooooo+++++++++++###XXXXXXXXXX##XX##.",
"O               ......ooo+++++++++++++++++++##XXXXXXXXXXXXX####.",
"        ........OOOOOO++++++++++++@@@@@+++++############XXXX#...",
" .......OOOO.OOOOOOO+++++++%%%%%%@@@@@@@++++%%########XXXXXXX##.",
"O..OOOOOO....OOOOO++++%%%%%%%%%%%@+++++@++++%%++++##XXXXXXXX###.",
"O..OOOOOO....OOOOO++++%%%%%%%%%%%@+++++@++++%%++++##XXXXXXXX###.",
" ..OOOOOOOOO.OOOO++++%%%%%%OOOOOO+&&&&+@%%%%%%%%@@+#XXXXXXX##OO.",
"O..OOOOOOOOO.OOOOO+++%OOOOOOO****+&&&&+@%%OOOO+++++###XXX##OOOO.",
"O..OOOOOOOOO.OOOO++++%OO&&&++****++++++@OOOOOOO+++#XXX###OOOOOO.",
"O..OOOOOOOOO.OOOO++++%OO&&&++****++++++@OOOOOOO+++#XXX###OOOOOO.",
"O..OOOOOOOOO.OOO..%%%%OO&&&+++++++&&&&+@OOOO++++##XXXXX#OOOOOOO.",
"O..OOOOO........OOOOO%OOOO+++&&&&+&&&&+@OO++++++##XXXXXOO.......",
"O.......OOOOO++++OOOO%OO***++&&&&+&&&&O%++++++++##XXXX#..OOOOOO.",
"O.......OOOOO++++OOOO%OO***++&&&&+&&&&O%++++++++##XXXX#..OOOOOO.",
" ....OOOOO++++++++OOO%++***++&&&&++++OO%++++++@@@@####++OOOOOOO.",
"    .OOOO+++++++++++O@++***+++++++&&&&O%%%%%%%+++++++++++++OOOO.",
"    .OOOOO++++++++OOO@+++++++&&&&+&&&&O%OOOO%%%%+++++++++OOOOOO.",
"    .OOOOO++++++++OOO@+++++++&&&&+&&&&O%OOOO%%%%+++++++++OOOOOO.",
"    .OOOO++++++++++++@++&&&++&&&&+&&&&O%++OO%%+++++++++++++OOOO.",
"    .OOO++++++++++++@@++&&&++&&&&++++OO%+++O%%%++++++++++OOOOOO.",
"    .OO++++++@@@@@@@+@++&&&+++++++@@@@%+++++%%+++++++++++++OOOO.",
"    o+++@@@@@+++++@@+@+++++@@@@@@@++++++++++%%+++++++++++@@@@@@o",
"    o+++@@@@@+++++@@+@+++++@@@@@@@++++++++++%%+++++++++++@@@@@@o",
" ....@@@OOOO++++@@@@+@@@@@@+++++++++++++++++@@++++@@@@@@@ooooooo",
" ..OOOOO++++++++++@@++++++++++++++++++++@@@@@@@@@@ooooooo@@@@oo ",
" ..OOOO++++++++++@@@+++++++++++++@@@@@@@oooooooooo======@@@@@oo ",
" ..OOOO++++++++++@@@+++++++++++++@@@@@@@oooooooooo======@@@@@oo ",
" ..O++++++++++++++@@+++++@@@@@@@@ooooooo================@++++oo ",
" oo+++++++++++++@@@@@@@@@oooooooo===================&&&&@++++oo ",
" oo+++++@@@@@@@@ooooooooo===============&&&&&&&&====&&&&@++++oo ",
" oo+++++@@@@@@@@ooooooooo===============&&&&&&&&====&&&&@++++oo ",
" oo@@@@@oooooooo=================&&&&=&&&&&&&&&&&&=&&&&&@++++oo ",
" ooooooo@================&&&&&&&&&&&&=&&&&&&&&&&&&=&&&&&@++++oo ",
"   o@@@@@=======&&&&&&@@@@@@@@@@@@@@@@@@@@%&XXXX&&&&&&&&%++++oo ",
"   o@@@@@=&&====&&&&@@+++++++++++++++++++++%%%XX&&&&&&&&%++++oo ",
"   o@@@@@=&&====&&&&@@+++++++++++++++++++++%%%XX&&&&&&&&%++++oo ",
"   o++++@=&&&=&&&&@@++++++++++++++++++++++++++%&&&&&&&&&%++++oo ",
"   o++++@=&&&=&&&&@@++++oooooooooooooooooo++++%&&&&&&&&&%++++oo ",
"   o++++@=&&&&&&&&@@++oo******************o+++%&&&&&&&&&%++++oo ",
"   o++++@=&&&&&&&&@@++oo******************o+++%&&&&&&&&&%++++oo ",
"   o++++@=&&&&&&&-@@++oo******************o+++%&&&&&&&&&%++++oo ",
"   o++++@=&&&&&&&-@@++oo******************o+++%&&&&&&&&&%++++oo ",
"   o++++@=&&&&&&--@@++oo******************o+++%&&&&&&&&&%++++oo ",
"   o++++@=&&&&&&--@@++oo******************o+++%&&&&&&&&&%++++oo ",
"   o++++@=&&&=----@@++oo******************o+++%&&&&&==&&%++@+oo ",
"   o++++@=&&XX---&@@++oo******************o+++%&&&&&==&&%++@+oo ",
"   o++++@=&&XXXX-&@@++oo******************o+++%&&&&====&%++@+oo ",
"   o++++@=&&XXXX-&@@++oo******************o+++%&&&&====&%++@+oo ",
"   o++++@====XXXX=@@++oo******************o+++%=========%++++oo ",
"   o++++@@@@@@@@@@@@++oo******************o+++%%%%%%%%%%%++++oo ",
"   o+@@+@+++++++++@@++oo******************o+++o+++++++++%++@+oo ",
"   o++++@+++++++++@@@@oo******************o@@@o+++++@@@@@++++oo ",
"   o++++@+++++++++@@@@oo******************o@@@o+++++@@@@@++++oo ",
"   o+@@+@+++++++++@@++oo*@@@@@@@@@@@@@@@**o+++o+++++++++@++@+oo ",
"   o+@@+@ooooooooooo++oo@@@@@@@@@@@@@@@@@@o+++oooooooooo@++@+oo ",
"   oooooo@@@@@@@@@oooooo                  ooooo@@@@@@@@@ooooooo ",
"   oooooo@@@@@@@@@oooooo                  ooooo@@@@@@@@@ooooooo ",
"          %%%*                                                  "
};
