/* XPM */
static char *_4f89b01cd7741f2a485559af3205c19Z9g8uKxY8cMQXyWD[] = {
/* columns rows colors chars-per-pixel */
"64 64 9 1 ",
"  c #C0D470",
". c #141B1B",
"X c #74A334",
"o c #A4C263",
"O c #ADBC3A",
"+ c #4A7F4B",
"@ c #4E484A",
"# c #965746",
"$ c #E46D3A",
/* pixels */
"                                                                ",
"                                                                ",
"                                                                ",
"                                                                ",
"                    ......................                      ",
"                    ......................                      ",
"              ......XXXXXXXXXXXXXXXXXXXXXX......  oo  oo        ",
"              ......XXXXXXXXXXXXXXXXXXXXXX......  oo  oo        ",
"          ....OOOOOOOOOOOOOOOOOOOOOOOOOOOOOOOOOO......          ",
"          ....OOOOOOOOOOOOOOOOOOOOOOOOOOOOOOOOOO......          ",
"      ....OOOOOOOOOOOOOOOOOOOOOOOOOOOOOOOOOOOOOOOOOOOO....      ",
"      ....OOOOOOOOOOOOOOOOOOOOOOOOOOOOOOOOOOOOOOOOOOOO....      ",
"    ..OOOOOOOOOOOOOOOOOOOOOOOOOOOOOOOOOOOOOOOOOOOOOOOOOOOO..    ",
"    ..OOOOOOOOOOOOOOOOOOOOOOOOOOOOOOOOOOOOOOOOOOOOOOOOOOOO..    ",
"  ..XXOOOOOOOOOOOOOOOOOOOOOOOOOOOOOOOOOOOOOOOOOOOOOOOOOOOOXX..  ",
"  ..XXOOOOOOOOOOOOOOOOOOOOOOOOOOOOOOOOOOOOOOOOOOOOOOOOOOOOXX..  ",
"  ..XXXXOOOOOOOOOOOOOOOOOOOOOOOOOOOOOOOOOOOOOOOOOOOOXXXXOOXX..  ",
"  ..XXXXOOOOOOOOOOOOOOOOOOOOOOOOOOOOOOOOOOOOOOOOOOOOXXXXOOXX..  ",
"  ..OOOOOOOOOOOOOOOOOOOOOOOOOOOOOOOOOOOOOOOOOOOOOOOOOOOOXXXX..  ",
"  ..OOOOOOOOOOOOOOOOOOOOOOOOOOOOOOOOOOOOOOOOOOOOOOOOOOOOXXXX..  ",
"..XXOOOOOOOOOOOOOOOOOOOOOOOOOOOOOOOOOOOOOOOOOOOOOOOOOOOOOOOOXX..",
"..XXOOOOOOOOOOOOOOOOOOOOOOOOOOOOOOOOOOOOOOOOOOOOOOOOOOOOOOOOXX..",
"..XXOOOOOOOOOOOOOOOOOOOOOOOOOOOOOOOOOOOOOOOOOOOOOOOOOOOOOOOOXX..",
"..XXOOOOOOOOOOOOOOOOOOOOOOOOOOOOOOOOOOOOOOOOOOOOOOOOOOOOOOOOXX..",
"....XXOOOOOOOOOOOOOOOOOOOOOOOOOOOOOOOOOOOOOOOOOOOOOOOOOOOOXX....",
"....XXOOOOOOOOOOOOOOOOOOOOOOOOOOOOOOOOOOOOOOOOOOOOOOOOOOOOXX....",
"..XXOOOOOOOOOOOOOOOOOOOOOOOOOOOOOOOOOOOOOOOOOOOOOOOOOOOOOOOOXX..",
"..XXOOOOOOOOOOOOOOOOOOOOOOOOOOOOOOOOOOOOOOOOOOOOOOOOOOOOOOOOXX..",
"..XXXXOOOOOOOOOOOOOOOOOOOOOOOOOOOOOOOOOOOOOOOOOOOOOOOOOOOOOOXX..",
"..XXXXOOOOOOOOOOOOOOOOOOOOOOOOOOOOOOOOOOOOOOOOOOOOOOOOOOOOOOXX..",
"..XXXXOOOOOOOOOOOOOOOOOOOOOOOOOOOOOOOOOOOOOOOOOOOOOOOOOOOOOOXX..",
"..XXXXOOOOOOOOOOOOOOOOOOOOOOOOOOOOOOOOOOOOOOOOOOOOOOOOOOOOOOXX..",
"..XXXXXXOOOOOOOOOOOOOOOOOOOOOOOOOOOOOOOOOOOOOOOOOOXXOOOOOOXXXX..",
"..XXXXXXOOOOOOOOOOOOOOOOOOOOOOOOOOOOOOOOOOOOOOOOOOXXOOOOOOXXXX..",
"  ..XXXXOOOOOOOOXXOOOOOOOOOOOOOOOOOOOOOOOOOOOOOOOOOOXXOOXXXX..  ",
"  ..XXXXOOOOOOOOXXOOOOOOOOOOOOOOOOOOOOOOOOOOOOOOOOOOXXOOXXXX..  ",
"..++++XXXXOOOOXXOOOOOOXXOOOOOOOOXXOOOOOOOOOOOOOOOOOOXXXXXXXXXX..",
"..++++XXXXOOOOXXOOOOOOXXOOOOOOOOXXOOOOOOOOOOOOOOOOOOXXXXXXXXXX..",
"..++++++XXXXXXXXOOOOOOXXOOOOOOOOXXOOOOOOOOXXXXOOOOXXXXXXXXXXXX..",
"..++++++XXXXXXXXOOOOOOXXOOOOOOOOXXOOOOOOOOXXXXOOOOXXXXXXXXXXXX..",
"  ....++++XXXXXXXXXXXXXXXXOOOOXXXXXXOOOOXXXXXXXXXXXXXX++XX....  ",
"  ....++++XXXXXXXXXXXXXXXXOOOOXXXXXXOOOOXXXXXXXXXXXXXX++XX....  ",
"    ....++++XXXXXXXXXXXXXXXXXXXXXXXXXXXXXXXXXXXXXXXX++++....    ",
"    ....++++XXXXXXXXXXXXXXXXXXXXXXXXXXXXXXXXXXXXXXXX++++....    ",
"    ..++++++++XXXX++XXXXXXXXXX++XXXXXX++XXXXXXXX++++++++++..    ",
"    ..++++++++XXXX++XXXXXXXXXX++XXXXXX++XXXXXXXX++++++++++..    ",
"    ..++++++++++++++++XXXX++++++XXXXXX++++XXXX++++++++++++..    ",
"    ..++++++++++++++++XXXX++++++XXXXXX++++XXXX++++++++++++..    ",
"      ....++++++@@++++++++++++++++++++++++++++++++++++....      ",
"      ....++++++@@++++++++++++++++++++++++++++++++++++....      ",
"      ..####@@@@@@@@@@@@@@@@++++++++@@##++++@@@@@@@@@@@@..      ",
"      ..####@@@@@@@@@@@@@@@@++++++++@@##++++@@@@@@@@@@@@..      ",
"      ..######$$$$@@############@@##@@########@@@@@@@@##..      ",
"      ..######$$$$@@############@@##@@########@@@@@@@@##..      ",
"    ..$$$$##$$$$$$$$$$$$$$$$$$$$##$$##$$######@@##@@####$$..    ",
"    ..$$$$##$$$$$$$$$$$$$$$$$$$$##$$##$$######@@##@@####$$..    ",
"    ..$$$$$$$$$$$$$$$$$$$$$$$$$$##$$##$$######@@##########..    ",
"    ..$$$$$$$$$$$$$$$$$$$$$$$$$$##$$##$$######@@##########..    ",
"      $$$$$$$$$$$$$$$$$$$$$$$$$$##$$$$$$##################      ",
"      $$$$$$$$$$$$$$$$$$$$$$$$$$##$$$$$$##################      ",
"            $$$$$$$$$$$$$$$$$$$$$$$$$$##############            ",
"            $$$$$$$$$$$$$$$$$$$$$$$$$$##############            ",
"                                                                ",
"                                                                "
};
