/* XPM */
static char *_818a2be283947aa99d8d07032823d1czVbSorRIECIrnmxQ[] = {
/* columns rows colors chars-per-pixel */
"96 32 29 1 ",
"  c None",
". c #713970",
"X c #795E53",
"o c #566560",
"O c #957A4B",
"+ c #90625D",
"@ c #AA7959",
"# c #8A4A70",
"$ c #A35B70",
"% c #AF6776",
"& c #BD757E",
"* c #67835C",
"= c #78A158",
"- c #B09643",
"; c #8DB15D",
": c #BFA954",
"> c #B68962",
", c #A4C263",
"< c #D4C169",
"1 c #C0D470",
"2 c #D2E077",
"3 c #EAE178",
"4 c #D99A9A",
"5 c #DCB98A",
"6 c #E8CFA6",
"7 c #F4F4A0",
"8 c #F3E5C2",
"9 c #F3F2C0",
"0 c #F3F4E7",
/* pixels */
"                                                                       --O                      ",
"                                                       ::-         --O-773O--O            000   ",
"   >>>>>>@@@@                                      ::-:997-::-    -773O<3<-773O          0OOO0  ",
"  >>88888888@+                          ,         :997-373:997-   O<3<O3<3O<3<O         0O<33O0 ",
"  >6>666666>5+                      ,  ,2,  ,     -373-737-373-   O3<3X<3<X3<3O        0O7<3<X0 ",
"  >86>>>>>>55+                     ,2, ,1; ,2,    -737;,7,;737-   O<3--O<--O3<O       0O<3:::X0 ",
"  @8666666665+                     ,1; ;1; ,1;    ;37::-,::-73;   X3-773-773O3X      0O7<3<<X0  ",
"  @866666::65+         ,           ;1; ;,; ;1;    =,:997:997-,=    XO<3<O<3<OX      0O<3:::X0   ",
"  @86666:3:65+     ,  ,1,  ,       ;,;,;,;,;,;     =-373-373-*     XO3<3O3<3OX      0X<3<<X0    ",
"  @8666:3:665+    ,1,5,;;5,1;    55;;,2,;,2,;;55 55=-737-737-*55 55XO<3<O<3<OX55    0X:::X0     ",
"  @8666::6665+   5,;;55555,;;5    55;,1;5,1;;55   55;33<=373;55   55O3<3O3<3O55    0X-XXX0      ",
"  @866-666665+    555,   ,555        ;,; ;,;        ;,3,=,3,=        O3O O3O      0X-X000       ",
"  @5666666655+      ,1, ,1;         5;,;5;,;5       5*,=5=,*5       5O3O5O3O5    0X-X0          ",
"   +55555555+     55,;;5,;;55      555;555;555     55*;=5=;*55     55O<O5O<O55   0XX0           ",
"    ++++++++       555555555         5555555         5555555         5555555     000            ",
"                                                                                                ",
"                                                                                                ",
"                                                                                        000     ",
"   >>>>>>@@@@                                                      =======             0==*0    ",
"  >>88886666@+                                       ====         =    ,,,=           0=,,;*0   ",
"  >6>666666>5+                                      =  ,,=,,     =    ,211,=         0=,;;oo0   ",
"  >86>>>>>>55+                                     = ,,21,11,,   =    ,,,,,=        0#*;;o#0    ",
"  @8666666665+                      ,,, % ,,,      = ,21,%,11,   = ,,  #&&,,,,     0$44ooo$#0   ",
"  @86666;=665+                      ,22%&%22,      = ,,,%&%,,,   =,1, #4&&$,21,   0$444&&&$$.0  ",
"  @8666#=*665+                      ,21;%;12,       =   $%$      =,,  #4&&$$,1,   0$44&&&&$$.0  ",
"  @866#4&#665+                       ,,1;1,,      ,,,==  $       ==   #&&$$$,1,   0#4&&&&&$$.0  ",
"  @866#&&#665+        1, 1,            ,,,       ,21, *=         *=====#$$$.,,    0#&&&&&$$$.0  ",
"  @8666##6665+        ,,,,,             =        ,,,   *=        ,******...        0#&&&$$$.0   ",
"  @5666666655+          =               =              **        ,,  55***555       0......0    ",
"   +55555555+         55=55          555=555          5**555     ,1,555***5555       000000     ",
"    ++++++++           555             5555          55555555    ,1,5555555555                  ",
"                                                       5555       ,, 5555555                    "
};
