/* XPM */
static char *d45e68046164436afa163c653c7065d6GA4FFJyvwCZRxPuA[] = {
/* columns rows colors chars-per-pixel */
"64 64 6 1 ",
"  c None",
". c #0C0E19",
"X c #21110D",
"o c #503625",
"O c #755338",
"+ c #9D7658",
/* pixels */
"                                                                ",
"     XXXXXXX         XXXXXXX         XXXXXXX         XXXXXXX    ",
"    XO+++++OX       XO+++++OX       XO+++++OX       XO+++++OX   ",
"   XO++OOO++OX     XO++OOO++OX     XO++OOO++OX     XO++OOO++OX  ",
"   XO++OOO++OX     XO++OOO++OX     XO++OOO++OX     XO++OOO++OX  ",
"   XoO+++++OoX     XoO+++++OoX     XoO+++++OoX     XoO+++++OoX  ",
"   XXoOOOOOoXX     XXoOOOOOoXXXXXXXXXoOOOOOoXXXXXXXXXoOOOOOoXX  ",
"    XXXXXXXXX       XXXXXXXXX+++++++XXXXXXXXX+++++++XXXXXXXXX   ",
"    XooOoOOoX       XooOoOOoXoOOoooOXooOoOOoXoOOoooOXooOoOOoX   ",
"    XoO+++OoX       XoO+++OoXOooooOOXoO+++OoXOooooOOXoO+++OoX   ",
"    XoX+++XoX       XoX+++XoXoooOOoOXoX+++XoXoooOOoOXoX+++XoX   ",
"   .XoX+++XoX.     .XoX+++XoXXXXXXXXXoX+++XoXXXXXXXXXoX+++XoX.  ",
"   .XoX+++XoX.     .XoX+++XoX.     .XoX+++XoX.     .XoX+++XoX.  ",
"  ...XX+++XX...   ...XX+++XX...   ...XX+++XX...   ...XX+++XX... ",
"    ..X+++X..       ..X+++X..       ..X+++X..       ..X+++X..   ",
"     .X+++X.         .X+++X.         .X+++X.         .X+++X.    ",
"      X+++X           X+++X           X+++X           X+++X     ",
"     XXXXXXX         XXXXXXX         XXXXXXX         XXXXXXX    ",
"    XO+++++OX       XO+++++OX       XO+++++OX       XO+++++OX   ",
"   XO++OOO++OX     XO++OOO++OX     XO++OOO++OX     XO++OOO++OX  ",
"   XO++OOO++OX     XO++OOO++OX     XO++OOO++OX     XO++OOO++OX  ",
"   XoO+++++OoX     XoO+++++OoX     XoO+++++OoX     XoO+++++OoX  ",
"   XXoOOOOOoXX     XXoOOOOOoXXXXXXXXXoOOOOOoXXXXXXXXXoOOOOOoXX  ",
"    XXXXXXXXX       XXXXXXXXX+++++++XXXXXXXXX+++++++XXXXXXXXX   ",
"    XooOoOOoX       XooOoOOoXoOOoooOXooOoOOoXoOOoooOXooOoOOoX   ",
"    XoO+++OoX       XoO+++OoXOooooOOXoO+++OoXOooooOOXoO+++OoX   ",
"    XoX+++XoX       XoX+++XoXoooOOoOXoX+++XoXoooOOoOXoX+++XoX   ",
"   .XoX+++XoX.     .XoX+++XoXXXXXXXXXoX+++XoXXXXXXXXXoX+++XoX.  ",
"   .XoX+++XoX.     .XoX+++XoX.     .XoX+++XoX.     .XoX+++XoX.  ",
"  ...XX+++XX...   ...XX+++XX...   ...XX+++XX...   ...XX+++XX... ",
"    ..X+++X..       ..X+++X..       ..X+++X..       ..X+++X..   ",
"     .X+++X.         .X+++X.         .X+++X.         .X+++X.    ",
"      X+++X           X+++X           X+++X           X+++X     ",
"     XXXXXXX         XXXXXXX         XXXXXXX         XXXXXXX    ",
"    XO+++++OX       XO+++++OX       XO+++++OX       XO+++++OX   ",
"   XO++OOO++OX     XO++OOO++OX     XO++OOO++OX     XO++OOO++OX  ",
"   XO++OOO++OX     XO++OOO++OX     XO++OOO++OX     XO++OOO++OX  ",
"   XoO+++++OoX     XoO+++++OoX     XoO+++++OoX     XoO+++++OoX  ",
"    XoOOOOOoX      XXoOOOOOoXXXXXXXXXoOOOOOoXXXXXXXXXoOOOOOoXX  ",
"    XXXXXXXXX       XXXXXXXXX+++++++XXXXXXXXX+++++++XXXXXXXXX   ",
"    XooOoOOoX       XooOoOOoXoOOoooOXooOoOOoXoOOoooOXooOoOOoX   ",
"    XoOOOoOoX       XoOOOoOoXOooooOOXoOOOoOoXOooooOOXoOOOoOoX   ",
"    XoOOOoOoX       XoOOOoOoXoooOOoOXoOOOoOoXoooOOoOXoOOOoOoX   ",
"   .XoOoOOOoX.     .XoOoOOOoXXXXXXXXXoOoOOOoXXXXXXXXXoOoOOOoX.  ",
"   .XooXOOooX.     .XooXOOooX.     .XooXOOooX.     .XooXOOooX.  ",
"  ...XoXoXoX...   ...XoXoXoX...   ...XoXoXoX...   ...XoXoXoX... ",
"    .........       .........       .........       .........   ",
"     .     .         .     .         .     .         .     .    ",
"                                                                ",
"     XXXXXXX         XXXXXXX         XXXXXXX         XXXXXXX    ",
"    XO+++++OX       XO+++++OX       XO+++++OX       XO+++++OX   ",
"   XO++OOO++OX     XO++OOO++OX     XO++OOO++OX     XO++OOO++OX  ",
"   XO++OOO++OX     XO++OOO++OX     XO++OOO++OX     XO++OOO++OX  ",
"   XoO+++++OoX     XoO+++++OoX     XoO+++++OoX     XoO+++++OoX  ",
"    XoOOOOOoX      XXoOOOOOoXXXXXXXXXoOOOOOoXXXXXXXXXoOOOOOoXX  ",
"    XXXXXXXXX       XXXXXXXXX+++++++XXXXXXXXX+++++++XXXXXXXXX   ",
"    XooOoOOoX       XooOoOOoXoOOoooOXooOoOOoXoOOoooOXooOoOOoX   ",
"    XoOOOoOoX       XoOOOoOoXOooooOOXoOOOoOoXOooooOOXoOOOoOoX   ",
"    XoOOOoOoX       XoOOOoOoXoooOOoOXoOOOoOoXoooOOoOXoOOOoOoX   ",
"   .XoOoOOOoX.     .XoOoOOOoXXXXXXXXXoOoOOOoXXXXXXXXXoOoOOOoX.  ",
"   .XooXOOooX.     .XooXOOooX.     .XooXOOooX.    ..XooXOOooX.  ",
"  ...XoXoXoX...   ...XoXoXoX...   ...XoXoXoX...   ...XoXoXoX... ",
"    .........       .........       .........       .........   ",
"     .     .         .     .         .     .         .     .    "
};
