/* XPM */
static char *_964fd9ab9ef4a12d51fdd030b3df0990lyAXcSOE5mj1JdS[] = {
/* columns rows colors chars-per-pixel */
"64 16 16 1 ",
"  c None",
". c #505E77",
"X c #5F7A79",
"o c #6E967C",
"O c #4C468B",
"+ c #555793",
"@ c #5F699C",
"# c #7180B1",
"$ c #97BB8E",
"% c #C2E09A",
"& c #8599C7",
"* c #B4C8C6",
"= c #B6CAD4",
"- c #CBE0DE",
"; c #DCE0D2",
": c #F3F4E7",
/* pixels */
"                                                        ::::    ",
"     ::::::          ::::::          ::::::            :XXX:    ",
"    :+++++O:        :+++++O:        :+++++O:     :::: :X%$X:::  ",
"   :+&&&&##O:      :+&&&&##O:      :+&&&&##O:    :XXX:X%$$XXXX: ",
"    :OOOOOO:        :OOOOOO:        :OOOOOO:     :X%%XX%$$X%%$X:",
"   :&-:---=&:      :&-:---*&:      :&:::::;&:    :X%$$o$$X$$$$X:",
"   :&:----=&:      :&:----*&:      :&:::::;&:     :Xo$o$$o$$oo::",
"   :&-----=&:      :&-----*&:      :&:::::;&:    :XXXoo$$o$oo.: ",
"  :&------==#:    :&::::::;;#:    :&::::::;;#:  :X%%$oo$oooo%%X:",
"  :&------==#:    :&::::::;;#:    :&::::::;;#:  :X$$$oooooo$$$.:",
"  :#------==@:    :#::::::;;@:    :#::::::;;@:  :...oooooooo...:",
"  :#------==@:    :#::::::;;@:    :#::::::;;@:  ::::.oooooo.::::",
"  :#-----===@:    :#:::::;;;@:    :#:::::;;;@:     :.oo.ooo.:   ",
"  :@--======@:    :@::;;;;;;@:    :@::;;;;;;@:      :..:.:.:    ",
"   :@@@@@@@@:      :@@@@@@@@:      :@@@@@@@@:        :: : :     ",
"    ::::::::        ::::::::        ::::::::                    "
};
