/* XPM */
static char *f65745bc38ad4198b7f023c6efb76694dogRJnDDd4Dg3v3A[] = {
/* columns rows colors chars-per-pixel */
"64 64 3 1 ",
"  c #C0D470",
". c #A4C263",
"X c #E8EEAA",
/* pixels */
"                                                                ",
"                                                                ",
"                                                                ",
"                                                                ",
"                                                                ",
"                                                                ",
"                        ..                        ..  ..        ",
"                        ..                        ..  ..        ",
"                      ..                            ..          ",
"                      ..                            ..          ",
"                      ..                                        ",
"                      ..                                        ",
"        ..                                                      ",
"        ..                                                      ",
"          ..                                                    ",
"          ..                                                    ",
"          ..        ..                                          ",
"          ..        ..                                          ",
"                  ..                                            ",
"                  ..                                            ",
"                  ..                  ..  ..                    ",
"                  ..                  ..  ..                    ",
"                                        ..                      ",
"                                        ..                      ",
"                                                                ",
"                                                                ",
"                                                                ",
"                                                                ",
"                                                                ",
"                                                                ",
"                                                                ",
"                                                                ",
"                                                                ",
"                                                                ",
"                                                                ",
"                                                                ",
"                                                                ",
"                                                                ",
"                                                      XX  XX    ",
"                                                      XX  XX    ",
"                                                        XX      ",
"                                                        XX      ",
"              XX                                                ",
"              XX                                                ",
"            XX                                                  ",
"            XX                                                  ",
"      XX    XX                                                  ",
"      XX    XX                                                  ",
"        XX  XX                                                  ",
"        XX  XX                                                  ",
"        XX          XX                                          ",
"        XX          XX                                          ",
"        XX            XX                XX  XX                  ",
"        XX            XX                XX  XX                  ",
"                      XX                  XX                    ",
"                      XX                  XX                    ",
"                      XX                                        ",
"                      XX                                        ",
"                                                                ",
"                                                                ",
"                                                                ",
"                                                                ",
"                                                                ",
"                                                                "
};
